HIERARCHY
ROOT Hips
{
	OFFSET 0.00000 0.00000 0.00000
	CHANNELS 6 Xposition Yposition Zposition Zrotation Yrotation Xrotation 
	JOINT LHipJoint
	{
		OFFSET 0 0 0
		CHANNELS 3 Zrotation Yrotation Xrotation
		JOINT LeftUpLeg
		{
			OFFSET 1.38280 -1.96574 0.54427
			CHANNELS 3 Zrotation Yrotation Xrotation
			JOINT LeftLeg
			{
				OFFSET 2.72096 -7.47578 0.00000
				CHANNELS 3 Zrotation Yrotation Xrotation
				JOINT LeftFoot
				{
					OFFSET 2.73041 -7.50176 0.00000
					CHANNELS 3 Zrotation Yrotation Xrotation
					JOINT LeftToeBase
					{
						OFFSET 0.16150 -0.44371 2.18031
						CHANNELS 3 Zrotation Yrotation Xrotation
						End Site
						{
							OFFSET 0.00000 -0.00000 1.12127
						}
					}
				}
			}
		}
	}
	JOINT RHipJoint
	{
		OFFSET 0 0 0
		CHANNELS 3 Zrotation Yrotation Xrotation
		JOINT RightUpLeg
		{
			OFFSET -1.57224 -1.96575 0.54427
			CHANNELS 3 Zrotation Yrotation Xrotation
			JOINT RightLeg
			{
				OFFSET -2.95935 -8.13076 0.00000
				CHANNELS 3 Zrotation Yrotation Xrotation
				JOINT RightFoot
				{
					OFFSET -2.52345 -6.93311 0.00000
					CHANNELS 3 Zrotation Yrotation Xrotation
					JOINT RightToeBase
					{
						OFFSET -0.04475 -0.10171 1.86688
						CHANNELS 3 Zrotation Yrotation Xrotation
						End Site
						{
							OFFSET -0.00000 -0.00000 0.95157
						}
					}
				}
			}
		}
	}
	JOINT LowerBack
	{
		OFFSET 0 0 0
		CHANNELS 3 Zrotation Yrotation Xrotation
		JOINT Spine
		{
			OFFSET 0.00669 2.07367 0.09104
			CHANNELS 3 Zrotation Yrotation Xrotation
			JOINT Spine1
			{
				OFFSET -0.00664 2.06198 -0.04732
				CHANNELS 3 Zrotation Yrotation Xrotation
				JOINT Neck
				{
					OFFSET 0 0 0
					CHANNELS 3 Zrotation Yrotation Xrotation
					JOINT Neck1
					{
						OFFSET -0.00021 1.49948 0.16345
						CHANNELS 3 Zrotation Yrotation Xrotation
						JOINT Head
						{
							OFFSET 0.06080 1.50567 -0.26702
							CHANNELS 3 Zrotation Yrotation Xrotation
							End Site
							{
								OFFSET 0.01726 1.56470 -0.11854
							}
						}
					}
				}
				JOINT LeftShoulder
				{
					OFFSET 0 0 0
					CHANNELS 3 Zrotation Yrotation Xrotation
					JOINT LeftArm
					{
						OFFSET 3.14993 0.82932 -0.22488
						CHANNELS 3 Zrotation Yrotation Xrotation
						JOINT LeftForeArm
						{
							OFFSET 5.68236 -0.00000 -0.00000
							CHANNELS 3 Zrotation Yrotation Xrotation
							JOINT LeftHand
							{
								OFFSET 3.17112 -0.00000 0.00000
								CHANNELS 3 Zrotation Yrotation Xrotation
								JOINT LeftFingerBase
								{
									OFFSET 0 0 0
									CHANNELS 3 Zrotation Yrotation Xrotation
									JOINT LeftHandIndex1
									{
										OFFSET 0.63269 -0.00000 0.00000
										CHANNELS 3 Zrotation Yrotation Xrotation
										End Site
										{
											OFFSET 0.51009 -0.00000 0.00000
										}
									}
								}
								JOINT LThumb
								{
									OFFSET 0 0 0
									CHANNELS 3 Zrotation Yrotation Xrotation
									End Site
									{
										OFFSET 0.51788 -0.00000 0.51788
									}
								}
							}
						}
					}
				}
				JOINT RightShoulder
				{
					OFFSET 0 0 0
					CHANNELS 3 Zrotation Yrotation Xrotation
					JOINT RightArm
					{
						OFFSET -3.10571 0.91279 -0.33334
						CHANNELS 3 Zrotation Yrotation Xrotation
						JOINT RightForeArm
						{
							OFFSET -5.87120 -0.00000 -0.00000
							CHANNELS 3 Zrotation Yrotation Xrotation
							JOINT RightHand
							{
								OFFSET -3.37589 -0.00000 0.00000
								CHANNELS 3 Zrotation Yrotation Xrotation
								JOINT RightFingerBase
								{
									OFFSET 0 0 0
									CHANNELS 3 Zrotation Yrotation Xrotation
									JOINT RightHandIndex1
									{
										OFFSET -0.60326 -0.00000 0.00000
										CHANNELS 3 Zrotation Yrotation Xrotation
										End Site
										{
											OFFSET -0.48636 -0.00000 0.00000
										}
									}
								}
								JOINT RThumb
								{
									OFFSET 0 0 0
									CHANNELS 3 Zrotation Yrotation Xrotation
									End Site
									{
										OFFSET -0.49379 -0.00000 0.49379
									}
								}
							}
						}
					}
				}
			}
		}
	}
}
MOTION
Frames: 6
Frame Time: .0083333
12.512 17.9678 -3.025 0 0 0 0 0 0 -21 0 0 0 0 0 0 0 0 0 0 0 0 0 0 21 0 0 0 0 0 0 0 0 0 0 0 0 0 0 0 0 0 0 0 0 0 0 -16 0 0 21 0 0 11 0 0 0 -8 0 0 0 0 0 0 0 0 0 0 0 0 0 0 0 0 0 0 0 0 8 0 0 0 0 0 0 0 0 0 0 0 0 0 0 0 0 0
12.5120 17.9678 -3.0250 127.8260 -86.4282 -115.6960 0.0000 0.0000 0.0000 -16.5341 -14.7666 -26.8215 4.7347 13.0786 39.6634 1.6299 -3.3144 -23.3008 0.9725 -6.2781 -17.5934 0.0000 0.0000 0.0000 17.4474 15.0667 -23.0338 -4.8242 -13.1831 40.0577 0.7750 17.5575 -2.6136 -2.0683 -9.0069 25.8169 -2.9607 -0.2119 -7.1961 1.4777 -0.0907 2.0811 3.2022 -0.1911 6.2286 -2.6768 -0.5069 -16.7870 0.3165 -0.1826 19.2322 0.5207 -0.2961 8.7908 0.0000 0.0000 0.0000 -83.5622 1.8767 28.3927 16.8433 -26.6507 -4.0168 -0.0000 0.0000 -13.4422 17.9697 30.7058 9.4037 -7.1250 0.0000 -0.0000 -15.9841 61.2503 -6.4182 0.0000 0.0000 0.0000 90.0035 0.1966 3.1732 -21.0514 31.8883 -6.0771 0.0000 0.0000 16.9486 -25.9606 34.3660 -15.3674 7.1250 -0.0000 -0.0000 3.7023 7.2071 4.1456
12.5002 17.9623 -3.0529 127.8360 -86.3503 -115.7210 0.0000 0.0000 0.0000 -16.5432 -14.5245 -26.9836 4.7894 13.1427 39.9049 1.6238 -3.4651 -23.2274 0.9904 -6.3339 -17.7564 0.0000 0.0000 0.0000 17.4848 14.9578 -23.0629 -4.8485 -13.2112 40.1642 0.8045 17.7750 -2.4674 -2.0392 -8.9472 25.6304 -2.8839 -0.1727 -7.1819 1.4576 -0.0448 2.0534 3.1430 -0.1639 6.1871 -2.6873 -0.5233 -16.7464 0.2713 -0.1953 19.2602 0.5055 -0.3086 8.7933 0.0000 0.0000 0.0000 -83.6788 2.1619 28.3947 16.9020 -26.7284 -4.0432 -0.0000 0.0000 -13.4091 18.0072 30.7236 9.4291 -7.1250 0.0000 -0.0000 -15.9560 61.2765 -6.4166 0.0000 0.0000 0.0000 90.4807 0.1255 3.0464 -20.6983 31.4745 -5.8916 0.0000 0.0000 17.0326 -26.3345 34.1879 -15.5430 7.1250 -0.0000 -0.0000 3.4645 7.1198 3.8739
12.4898 17.9579 -3.0803 127.4650 -86.2870 -115.3090 0.0000 0.0000 0.0000 -16.5369 -14.4187 -27.2001 4.8578 13.2218 40.2045 1.6239 -3.5386 -23.2149 1.0152 -6.4105 -17.9803 0.0000 0.0000 0.0000 17.5023 14.8743 -23.1533 -4.8780 -13.2450 40.2928 0.8282 17.9656 -2.3843 -2.0250 -8.9179 25.5389 -2.8051 -0.1692 -7.1918 1.4253 -0.0454 2.0428 3.0644 -0.1601 6.1809 -2.6689 -0.5115 -16.8370 0.2481 -0.1755 19.3218 0.4970 -0.3012 8.8305 0.0000 0.0000 0.0000 -83.8063 2.3478 28.2856 16.9453 -26.7857 -4.0627 -0.0000 0.0000 -13.3684 18.2148 30.7737 9.5571 -7.1250 0.0000 -0.0000 -15.7641 61.3760 -6.3745 0.0000 0.0000 0.0000 90.9382 0.1841 2.9079 -20.3394 31.0491 -5.7054 0.0000 0.0000 17.2951 -26.6497 34.1502 -15.7335 7.1250 -0.0000 -0.0000 3.2853 7.1625 3.6750
12.4789 17.9530 -3.1070 126.4840 -86.2520 -114.2690 0.0000 0.0000 0.0000 -16.5219 -14.4276 -27.4147 4.9326 13.3075 40.5309 1.6258 -3.5526 -23.2268 1.0331 -6.4648 -18.1393 0.0000 0.0000 0.0000 17.5186 14.7771 -23.2654 -4.9065 -13.2778 40.4174 0.8459 18.1198 -2.3495 -2.0088 -8.8844 25.4343 -2.7581 -0.2015 -7.2247 1.4141 -0.0916 2.0362 3.0206 -0.1810 6.1960 -2.6091 -0.4769 -16.8969 0.1605 -0.1209 19.3020 0.4641 -0.2801 8.8337 -0.0000 -0.0000 0.0000 -83.9781 2.5096 28.1264 16.9938 -26.8496 -4.0845 -0.0000 0.0000 -13.3352 18.4332 30.8718 9.7049 -7.1250 0.0000 -0.0000 -15.5952 61.5248 -6.3593 -0.0000 -0.0000 0.0000 91.2920 0.2626 2.8795 -19.9826 30.6214 -5.5225 0.0000 0.0000 17.5566 -26.9493 34.1209 -15.9175 7.1250 -0.0000 -0.0000 3.1162 7.2104 3.4875
12.4678 17.9476 -3.1332 125.3450 -86.2306 -113.0770 0.0000 0.0000 0.0000 -16.4969 -14.4683 -27.6476 5.0227 13.4093 40.9205 1.6300 -3.5381 -23.2599 1.0561 -6.5344 -18.3430 0.0000 0.0000 0.0000 17.5442 14.6760 -23.3680 -4.9344 -13.3095 40.5384 0.8621 18.2649 -2.3285 -1.9895 -8.8441 25.3090 -2.7058 -0.2378 -7.2502 1.4048 -0.1440 2.0277 2.9747 -0.2046 6.2051 -2.5599 -0.4467 -16.9593 0.0856 -0.0726 19.2962 0.4365 -0.2616 8.8423 0.0000 -0.0000 0.0000 -84.1575 2.6663 27.9587 17.0400 -26.9105 -4.1054 -0.0000 0.0000 -13.2721 18.6386 30.9619 9.8442 -7.1250 0.0000 -0.0000 -15.4343 61.6630 -6.3425 0.0000 -0.0000 0.0000 91.6088 0.3325 2.8734 -19.6251 30.1880 -5.3415 0.0000 0.0000 17.7952 -27.2767 34.1167 -16.1301 7.1250 -0.0000 -0.0000 2.9369 7.2923 3.2900
